<svg xmlns="http://www.w3.org/2000/svg" xmlns:xlink="http://www.w3.org/1999/xlink" width="64" zoomAndPan="magnify" viewBox="0 0 48 48" height="64" preserveAspectRatio="xMidYMid meet" version="1.0"><defs><clipPath id="8534911575"><path d="M 0.488281 0 L 47.507812 0 L 47.507812 47.019531 L 0.488281 47.019531 Z M 0.488281 0 " clip-rule="nonzero"/></clipPath><clipPath id="02cb33c053"><path d="M 24 0 C 11.015625 0 0.488281 10.527344 0.488281 23.511719 C 0.488281 36.496094 11.015625 47.019531 24 47.019531 C 36.984375 47.019531 47.511719 36.496094 47.511719 23.511719 C 47.511719 10.527344 36.984375 0 24 0 Z M 24 0 " clip-rule="nonzero"/></clipPath><clipPath id="2f6f7c5fd2"><path d="M 9.824219 15 L 19 15 L 19 22 L 9.824219 22 Z M 9.824219 15 " clip-rule="nonzero"/></clipPath><clipPath id="551d891a0a"><path d="M 9.824219 14 L 21 14 L 21 24 L 9.824219 24 Z M 9.824219 14 " clip-rule="nonzero"/></clipPath><clipPath id="9b126ac2d8"><path d="M 9.824219 12.066406 L 39.945312 12.066406 L 39.945312 34.84375 L 9.824219 34.84375 Z M 9.824219 12.066406 " clip-rule="nonzero"/></clipPath></defs><g clip-path="url(#8534911575)"><g clip-path="url(#02cb33c053)"><path fill="#171e2d" d="M 0.488281 0 L 47.511719 0 L 47.511719 47.019531 L 0.488281 47.019531 Z M 0.488281 0 " fill-opacity="1" fill-rule="nonzero"/></g></g><g clip-path="url(#2f6f7c5fd2)"><path fill="#d9d9d9" d="M 15.855469 21.925781 C 15.933594 21.914062 16.019531 21.925781 16.097656 21.90625 L 16.335938 21.871094 C 16.417969 21.847656 16.496094 21.828125 16.574219 21.808594 C 16.882812 21.710938 17.175781 21.574219 17.445312 21.390625 C 17.476562 21.367188 17.511719 21.34375 17.542969 21.320312 C 17.550781 21.316406 17.558594 21.308594 17.566406 21.304688 C 17.996094 20.964844 18.316406 20.546875 18.527344 20.042969 C 18.527344 20.039062 18.527344 20.039062 18.527344 20.039062 C 18.527344 20.039062 18.53125 20.039062 18.53125 20.039062 C 18.554688 19.980469 18.574219 19.917969 18.59375 19.859375 C 18.597656 19.847656 18.601562 19.835938 18.601562 19.824219 C 18.605469 19.824219 18.605469 19.824219 18.605469 19.824219 C 18.695312 19.523438 18.746094 19.214844 18.75 18.902344 C 18.746094 18.648438 18.714844 18.402344 18.652344 18.15625 C 18.636719 18.085938 18.617188 18.015625 18.59375 17.945312 C 18.5 17.632812 18.335938 17.347656 18.144531 17.089844 C 17.945312 16.832031 17.714844 16.59375 17.445312 16.410156 C 17.175781 16.226562 16.882812 16.089844 16.574219 15.992188 C 16.496094 15.976562 16.417969 15.953125 16.335938 15.933594 L 16.097656 15.898438 C 16.019531 15.878906 15.933594 15.886719 15.855469 15.878906 L 15.730469 15.871094 C 15.683594 15.867188 15.613281 15.871094 15.554688 15.871094 L 9.84375 15.871094 L 9.84375 16.5 L 15.554688 16.5 C 15.613281 16.5 15.683594 16.496094 15.730469 16.5 L 15.828125 16.507812 C 15.890625 16.515625 15.957031 16.503906 16.019531 16.523438 C 16.082031 16.535156 16.148438 16.539062 16.210938 16.550781 C 16.273438 16.566406 16.332031 16.585938 16.394531 16.597656 C 16.644531 16.675781 16.875 16.785156 17.085938 16.929688 C 17.300781 17.070312 17.484375 17.261719 17.640625 17.464844 C 17.957031 17.875 18.109375 18.382812 18.121094 18.902344 C 18.109375 19.421875 17.957031 19.925781 17.640625 20.335938 C 17.484375 20.539062 17.300781 20.730469 17.085938 20.875 C 16.871094 21.019531 16.644531 21.128906 16.394531 21.203125 C 16.332031 21.21875 16.273438 21.234375 16.210938 21.253906 C 16.148438 21.261719 16.082031 21.269531 16.019531 21.28125 C 15.957031 21.300781 15.890625 21.289062 15.828125 21.296875 L 15.730469 21.300781 C 15.707031 21.304688 15.675781 21.304688 15.644531 21.304688 L 9.84375 21.304688 L 9.84375 21.933594 L 15.730469 21.933594 Z M 15.855469 21.925781 " fill-opacity="1" fill-rule="nonzero"/></g><g clip-path="url(#551d891a0a)"><path fill="#d9d9d9" d="M 15.738281 23.191406 L 15.910156 23.183594 C 16.023438 23.171875 16.140625 23.179688 16.253906 23.152344 L 16.59375 23.101562 L 16.925781 23.015625 C 17.074219 22.972656 17.21875 22.917969 17.363281 22.859375 C 17.566406 22.773438 17.761719 22.675781 17.949219 22.5625 C 17.96875 22.550781 17.988281 22.539062 18.007812 22.523438 C 18.0625 22.492188 18.113281 22.460938 18.164062 22.425781 C 18.359375 22.292969 18.542969 22.140625 18.707031 21.972656 C 18.722656 21.960938 18.734375 21.945312 18.75 21.933594 C 18.894531 21.789062 19.027344 21.632812 19.148438 21.46875 C 19.191406 21.417969 19.230469 21.359375 19.265625 21.304688 C 19.445312 21.046875 19.59375 20.769531 19.710938 20.476562 C 19.738281 20.40625 19.765625 20.332031 19.789062 20.257812 C 19.789062 20.246094 19.792969 20.238281 19.796875 20.230469 C 19.933594 19.800781 20.003906 19.355469 20.007812 18.902344 C 20.007812 18.726562 19.996094 18.550781 19.972656 18.375 C 19.9375 18.09375 19.875 17.816406 19.789062 17.546875 C 19.78125 17.53125 19.777344 17.519531 19.773438 17.503906 C 19.695312 17.269531 19.597656 17.042969 19.472656 16.828125 C 19.375 16.65625 19.269531 16.492188 19.148438 16.332031 C 18.875 15.96875 18.546875 15.636719 18.164062 15.378906 C 17.78125 15.117188 17.371094 14.917969 16.925781 14.785156 L 16.59375 14.699219 L 16.253906 14.648438 C 16.140625 14.625 16.023438 14.628906 15.910156 14.621094 L 15.738281 14.613281 L 9.84375 14.613281 L 9.84375 15.238281 L 15.554688 15.238281 L 15.734375 15.242188 L 15.878906 15.25 C 15.980469 15.257812 16.078125 15.25 16.175781 15.273438 L 16.464844 15.316406 L 16.75 15.390625 C 17.125 15.503906 17.476562 15.671875 17.804688 15.894531 C 18.132812 16.113281 18.410156 16.398438 18.648438 16.710938 C 18.816406 16.933594 18.957031 17.175781 19.070312 17.429688 C 19.117188 17.53125 19.15625 17.636719 19.191406 17.746094 C 19.242188 17.910156 19.285156 18.082031 19.316406 18.253906 C 19.355469 18.46875 19.375 18.683594 19.382812 18.902344 C 19.375 19.285156 19.3125 19.660156 19.199219 20.027344 C 19.171875 20.105469 19.144531 20.183594 19.117188 20.261719 C 19.117188 20.261719 19.117188 20.261719 19.117188 20.265625 C 18.996094 20.558594 18.839844 20.835938 18.648438 21.089844 C 18.589844 21.164062 18.535156 21.234375 18.472656 21.304688 C 18.363281 21.433594 18.246094 21.550781 18.121094 21.664062 C 18.019531 21.75 17.914062 21.832031 17.804688 21.90625 C 17.792969 21.914062 17.78125 21.921875 17.765625 21.933594 C 17.449219 22.144531 17.113281 22.304688 16.75 22.410156 L 16.464844 22.484375 L 16.175781 22.53125 C 16.078125 22.550781 15.980469 22.542969 15.878906 22.550781 L 15.734375 22.5625 L 9.84375 22.5625 L 9.84375 23.191406 Z M 15.738281 23.191406 " fill-opacity="1" fill-rule="nonzero"/></g><g clip-path="url(#9b126ac2d8)"><path fill="#d9d9d9" d="M 40.210938 23.480469 C 40.210938 22.347656 40.046875 21.242188 39.714844 20.15625 C 39.386719 19.074219 38.90625 18.0625 38.273438 17.121094 C 37.644531 16.179688 36.890625 15.351562 36.011719 14.636719 C 35.132812 13.921875 34.171875 13.347656 33.121094 12.921875 L 32.59375 12.726562 L 32.328125 12.628906 L 32.195312 12.582031 L 32.058594 12.546875 L 31.515625 12.40625 L 31.242188 12.335938 C 31.152344 12.3125 31.0625 12.292969 30.96875 12.277344 C 30.597656 12.222656 30.226562 12.15625 29.855469 12.121094 L 29.296875 12.089844 L 29.015625 12.078125 L 28.875 12.070312 C 28.828125 12.070312 28.78125 12.066406 28.746094 12.066406 C 27.363281 12.066406 26.023438 12.3125 24.726562 12.800781 C 23.429688 13.285156 22.261719 13.988281 21.222656 14.898438 C 21.203125 14.875 21.183594 14.847656 21.164062 14.820312 C 20.726562 14.242188 20.203125 13.722656 19.601562 13.3125 C 18.996094 12.894531 18.339844 12.578125 17.632812 12.367188 C 17.457031 12.320312 17.28125 12.277344 17.101562 12.234375 C 16.921875 12.203125 16.742188 12.175781 16.5625 12.148438 C 16.382812 12.117188 16.199219 12.117188 16.019531 12.105469 L 15.746094 12.09375 L 9.84375 12.09375 L 9.84375 12.722656 L 15.742188 12.722656 L 15.992188 12.734375 C 16.15625 12.746094 16.320312 12.746094 16.484375 12.773438 C 16.648438 12.796875 16.8125 12.820312 16.976562 12.851562 L 17.457031 12.972656 C 18.097656 13.164062 18.691406 13.449219 19.242188 13.828125 C 19.789062 14.199219 20.261719 14.671875 20.660156 15.199219 C 20.691406 15.246094 20.726562 15.289062 20.757812 15.332031 C 20.878906 15.507812 20.996094 15.6875 21.101562 15.875 C 21.214844 16.070312 21.3125 16.269531 21.402344 16.472656 C 21.46875 16.628906 21.527344 16.789062 21.578125 16.949219 C 21.601562 17.015625 21.621094 17.078125 21.640625 17.144531 C 21.714844 17.394531 21.769531 17.652344 21.8125 17.910156 C 21.863281 18.226562 21.890625 18.539062 21.898438 18.859375 C 21.898438 18.871094 21.898438 18.886719 21.898438 18.902344 C 21.890625 19.566406 21.785156 20.21875 21.578125 20.851562 C 21.578125 20.851562 21.578125 20.855469 21.578125 20.855469 C 21.546875 20.9375 21.519531 21.023438 21.492188 21.105469 C 21.492188 21.109375 21.492188 21.109375 21.488281 21.109375 C 21.464844 21.175781 21.4375 21.242188 21.410156 21.304688 C 21.320312 21.519531 21.214844 21.730469 21.101562 21.933594 L 22.242188 21.933594 C 23.210938 21.941406 24.128906 22.164062 24.992188 22.601562 C 25.847656 23.023438 26.585938 23.660156 27.15625 24.421875 C 27.722656 25.179688 28.125 26.078125 28.28125 27.015625 C 28.449219 27.96875 28.402344 28.910156 28.136719 29.839844 C 28.074219 30.058594 28 30.273438 27.910156 30.484375 C 27.746094 30.460938 27.578125 30.429688 27.410156 30.410156 C 27.363281 30.402344 27.316406 30.394531 27.269531 30.378906 C 27.375 30.148438 27.460938 29.910156 27.53125 29.664062 C 27.769531 28.828125 27.8125 27.984375 27.664062 27.128906 C 27.519531 26.285156 27.160156 25.480469 26.652344 24.796875 C 26.140625 24.113281 25.476562 23.542969 24.710938 23.164062 C 23.933594 22.769531 23.109375 22.570312 22.242188 22.5625 L 19.882812 22.5625 C 19.890625 22.554688 19.898438 22.546875 19.90625 22.535156 C 19.992188 22.4375 20.074219 22.332031 20.15625 22.226562 C 20.226562 22.132812 20.296875 22.03125 20.359375 21.933594 C 20.496094 21.734375 20.613281 21.523438 20.71875 21.304688 C 20.785156 21.171875 20.84375 21.035156 20.898438 20.898438 C 20.929688 20.816406 20.957031 20.734375 20.980469 20.652344 C 20.984375 20.648438 20.984375 20.648438 20.984375 20.644531 C 20.984375 20.644531 20.984375 20.644531 20.984375 20.640625 C 21.167969 20.078125 21.261719 19.496094 21.269531 18.902344 C 21.269531 18.828125 21.265625 18.753906 21.261719 18.679688 L 21.261719 18.675781 C 21.246094 18.363281 21.207031 18.054688 21.144531 17.75 C 21.101562 17.546875 21.046875 17.34375 20.980469 17.148438 C 20.964844 17.097656 20.949219 17.050781 20.933594 17 C 20.855469 16.78125 20.761719 16.566406 20.652344 16.359375 C 20.550781 16.164062 20.4375 15.976562 20.3125 15.796875 C 20.261719 15.722656 20.210938 15.648438 20.15625 15.578125 C 19.800781 15.105469 19.375 14.679688 18.882812 14.34375 C 18.386719 14.003906 17.855469 13.75 17.28125 13.578125 L 16.847656 13.46875 C 16.703125 13.441406 16.554688 13.421875 16.40625 13.398438 C 16.261719 13.371094 16.113281 13.375 15.964844 13.363281 L 15.742188 13.351562 L 9.84375 13.351562 L 9.84375 13.980469 L 15.554688 13.980469 C 16.054688 13.984375 16.605469 14.023438 17.101562 14.183594 C 17.613281 14.335938 18.085938 14.558594 18.523438 14.859375 C 18.960938 15.15625 19.335938 15.535156 19.652344 15.953125 C 19.734375 16.0625 19.8125 16.175781 19.886719 16.292969 C 20.007812 16.484375 20.117188 16.683594 20.210938 16.894531 C 20.277344 17.042969 20.335938 17.191406 20.386719 17.347656 C 20.414062 17.433594 20.441406 17.523438 20.464844 17.613281 C 20.542969 17.910156 20.59375 18.210938 20.621094 18.515625 C 20.632812 18.644531 20.636719 18.773438 20.640625 18.902344 C 20.632812 19.421875 20.550781 19.933594 20.394531 20.429688 C 20.390625 20.429688 20.390625 20.433594 20.390625 20.433594 C 20.359375 20.519531 20.328125 20.609375 20.300781 20.695312 C 20.300781 20.699219 20.300781 20.699219 20.300781 20.699219 C 20.21875 20.90625 20.121094 21.109375 20.007812 21.304688 C 19.902344 21.492188 19.78125 21.671875 19.652344 21.847656 C 19.632812 21.875 19.609375 21.90625 19.585938 21.933594 C 19.496094 22.046875 19.402344 22.160156 19.304688 22.265625 C 19.207031 22.367188 19.105469 22.46875 19.003906 22.5625 C 18.878906 22.675781 18.75 22.78125 18.613281 22.878906 C 18.582031 22.902344 18.554688 22.921875 18.523438 22.941406 C 18.390625 23.03125 18.257812 23.113281 18.117188 23.195312 L 22.234375 23.195312 C 23.007812 23.199219 23.734375 23.378906 24.421875 23.722656 C 25.105469 24.058594 25.691406 24.566406 26.148438 25.175781 C 26.609375 25.789062 26.910156 26.480469 27.042969 27.238281 C 27.175781 27.996094 27.136719 28.746094 26.925781 29.488281 C 26.855469 29.738281 26.765625 29.984375 26.652344 30.21875 L 26.578125 30.191406 L 26.417969 30.132812 L 26.09375 30.015625 C 26.082031 30.011719 26.070312 30.007812 26.058594 30 C 26.167969 29.78125 26.257812 29.550781 26.324219 29.3125 C 26.507812 28.664062 26.539062 28.011719 26.425781 27.351562 C 26.308594 26.6875 26.046875 26.085938 25.640625 25.550781 C 24.859375 24.476562 23.554688 23.828125 22.230469 23.820312 L 9.84375 23.820312 L 9.84375 24.449219 L 17.371094 24.449219 L 18.003906 24.453125 L 22.230469 24.453125 C 23.359375 24.460938 24.46875 25.007812 25.136719 25.925781 C 25.476562 26.378906 25.714844 26.90625 25.804688 27.460938 C 25.902344 28.027344 25.875 28.582031 25.71875 29.136719 C 25.660156 29.34375 25.585938 29.542969 25.488281 29.734375 C 25.300781 29.636719 25.121094 29.527344 24.941406 29.414062 C 25.015625 29.269531 25.070312 29.117188 25.113281 28.957031 C 25.242188 28.5 25.265625 28.039062 25.1875 27.570312 C 25.105469 27.105469 24.921875 26.679688 24.632812 26.304688 C 24.355469 25.929688 23.988281 25.613281 23.570312 25.410156 C 23.148438 25.195312 22.699219 25.085938 22.222656 25.082031 L 17.441406 25.082031 L 15.554688 25.078125 L 9.84375 25.078125 L 9.84375 25.710938 L 17.542969 25.710938 C 17.886719 27.484375 18.613281 29.085938 19.71875 30.515625 L 9.84375 30.515625 L 9.84375 31.140625 L 20.242188 31.140625 C 20.390625 31.308594 20.542969 31.46875 20.699219 31.625 C 20.75 31.675781 20.800781 31.722656 20.851562 31.773438 L 9.84375 31.773438 L 9.84375 32.402344 L 21.566406 32.402344 C 21.839844 32.621094 22.117188 32.828125 22.410156 33.019531 L 22.289062 33.027344 C 22.101562 33.035156 21.929688 33.027344 21.75 33.03125 L 9.84375 33.03125 L 9.84375 33.660156 L 22.015625 33.660156 C 22.109375 33.660156 22.183594 33.664062 22.296875 33.65625 L 22.777344 33.632812 L 22.933594 33.609375 C 23.054688 33.589844 23.171875 33.574219 23.285156 33.550781 C 23.566406 33.707031 23.851562 33.847656 24.144531 33.976562 L 24.0625 34.003906 C 23.949219 34.039062 23.832031 34.066406 23.71875 34.097656 C 23.488281 34.160156 23.253906 34.203125 23.015625 34.230469 L 22.839844 34.257812 L 22.664062 34.269531 L 22.308594 34.285156 L 22.21875 34.289062 L 9.84375 34.289062 L 9.84375 34.921875 L 22.148438 34.921875 L 22.222656 34.917969 L 22.320312 34.914062 L 22.710938 34.894531 L 22.90625 34.882812 L 23.101562 34.855469 C 23.359375 34.820312 23.621094 34.78125 23.871094 34.707031 C 24 34.675781 24.125 34.640625 24.253906 34.605469 L 24.621094 34.472656 C 24.757812 34.425781 24.886719 34.371094 25.015625 34.308594 L 25.214844 34.382812 L 25.347656 34.429688 L 25.484375 34.46875 L 26.027344 34.609375 L 26.300781 34.675781 C 26.394531 34.703125 26.484375 34.722656 26.578125 34.734375 C 26.949219 34.789062 27.316406 34.859375 27.691406 34.894531 L 28.25 34.921875 L 28.53125 34.9375 L 28.671875 34.941406 C 28.71875 34.945312 28.761719 34.945312 28.796875 34.945312 C 29.929688 34.945312 31.039062 34.78125 32.121094 34.449219 C 33.207031 34.121094 34.21875 33.640625 35.15625 33.007812 C 36.097656 32.378906 36.925781 31.621094 37.640625 30.746094 C 38.359375 29.867188 38.929688 28.902344 39.359375 27.855469 L 39.554688 27.328125 L 39.695312 26.929688 L 39.734375 26.792969 L 39.875 26.25 L 39.941406 25.976562 C 39.96875 25.886719 39.988281 25.792969 40 25.703125 C 40.054688 25.332031 40.125 24.960938 40.160156 24.589844 L 40.1875 24.027344 L 40.203125 23.75 L 40.207031 23.609375 C 40.210938 23.558594 40.210938 23.515625 40.210938 23.480469 Z M 27.660156 24.042969 C 27.03125 23.203125 26.21875 22.507812 25.277344 22.039062 C 24.324219 21.558594 23.3125 21.3125 22.246094 21.304688 L 22.089844 21.304688 L 22.148438 21.152344 L 22.261719 20.828125 C 22.527344 20.183594 22.878906 19.59375 23.316406 19.054688 C 23.757812 18.515625 24.265625 18.050781 24.839844 17.664062 C 25.417969 17.277344 26.039062 16.980469 26.707031 16.777344 C 27.371094 16.574219 28.050781 16.472656 28.746094 16.472656 L 29.449219 16.507812 C 29.679688 16.53125 29.90625 16.578125 30.132812 16.605469 C 30.191406 16.609375 30.246094 16.621094 30.300781 16.640625 L 30.46875 16.683594 L 30.800781 16.769531 L 30.886719 16.789062 L 30.964844 16.820312 L 31.128906 16.878906 L 31.453125 16.996094 C 32.09375 17.261719 32.6875 17.613281 33.226562 18.050781 C 33.765625 18.492188 34.226562 19 34.617188 19.574219 C 35.003906 20.152344 35.300781 20.773438 35.5 21.441406 C 35.703125 22.105469 35.804688 22.785156 35.804688 23.480469 L 35.769531 24.183594 C 35.75 24.414062 35.703125 24.640625 35.675781 24.867188 C 35.667969 24.925781 35.65625 24.980469 35.640625 25.035156 L 35.59375 25.203125 L 35.511719 25.535156 L 35.488281 25.621094 L 35.460938 25.699219 L 35.398438 25.863281 L 35.28125 26.183594 C 35.019531 26.828125 34.667969 27.421875 34.226562 27.960938 C 33.789062 28.5 33.28125 28.960938 32.703125 29.351562 C 32.125 29.738281 31.503906 30.03125 30.839844 30.234375 C 30.175781 30.4375 29.492188 30.539062 28.796875 30.539062 L 28.570312 30.527344 C 28.636719 30.359375 28.691406 30.1875 28.738281 30.015625 C 29.03125 28.992188 29.085938 27.953125 28.902344 26.90625 C 28.726562 25.871094 28.285156 24.882812 27.660156 24.042969 Z M 22.222656 25.710938 C 22.597656 25.714844 22.949219 25.804688 23.285156 25.972656 C 23.625 26.140625 23.90625 26.375 24.128906 26.679688 C 24.351562 26.976562 24.507812 27.320312 24.566406 27.683594 C 24.628906 28.054688 24.613281 28.421875 24.511719 28.785156 C 24.488281 28.871094 24.457031 28.957031 24.421875 29.042969 C 23.460938 28.289062 22.746094 27.347656 22.277344 26.222656 C 22.207031 26.054688 22.144531 25.882812 22.085938 25.710938 Z M 21.429688 25.710938 C 21.503906 25.96875 21.59375 26.21875 21.695312 26.464844 C 22.21875 27.71875 23.015625 28.757812 24.09375 29.585938 C 24.261719 29.714844 24.433594 29.835938 24.609375 29.949219 C 24.789062 30.0625 24.96875 30.171875 25.15625 30.269531 C 25.34375 30.371094 25.535156 30.460938 25.734375 30.546875 C 25.773438 30.5625 25.8125 30.582031 25.855469 30.597656 C 26.015625 30.664062 26.175781 30.722656 26.335938 30.777344 C 26.542969 30.84375 26.753906 30.90625 26.96875 30.957031 C 27.183594 31.007812 27.402344 31.050781 27.621094 31.082031 C 27.84375 31.117188 28.070312 31.140625 28.296875 31.152344 C 28.460938 31.164062 28.628906 31.167969 28.796875 31.167969 C 29.8125 31.167969 30.792969 30.972656 31.730469 30.582031 C 32.667969 30.191406 33.496094 29.636719 34.210938 28.917969 C 34.929688 28.195312 35.480469 27.363281 35.863281 26.425781 C 36.246094 25.480469 36.4375 24.503906 36.433594 23.484375 C 36.433594 22.46875 36.238281 21.488281 35.851562 20.550781 C 35.460938 19.609375 34.902344 18.785156 34.183594 18.066406 C 33.460938 17.351562 32.628906 16.800781 31.691406 16.414062 C 30.746094 16.03125 29.769531 15.84375 28.75 15.84375 C 27.734375 15.847656 26.753906 16.042969 25.816406 16.429688 C 24.464844 16.992188 23.371094 17.867188 22.523438 19.058594 C 22.527344 19.003906 22.527344 18.953125 22.527344 18.902344 C 22.523438 18.632812 22.507812 18.367188 22.476562 18.097656 C 22.605469 17.945312 22.742188 17.796875 22.886719 17.652344 C 23.660156 16.871094 24.558594 16.269531 25.574219 15.847656 C 26.589844 15.425781 27.648438 15.214844 28.746094 15.214844 C 29.847656 15.210938 30.910156 15.417969 31.929688 15.832031 C 32.6875 16.144531 33.386719 16.558594 34.023438 17.074219 C 34.65625 17.59375 35.203125 18.195312 35.660156 18.875 C 36.117188 19.554688 36.46875 20.289062 36.707031 21.074219 C 36.945312 21.859375 37.0625 22.660156 37.0625 23.480469 C 37.066406 24.582031 36.863281 25.644531 36.445312 26.664062 C 36.136719 27.421875 35.722656 28.121094 35.203125 28.753906 C 34.683594 29.390625 34.085938 29.9375 33.40625 30.394531 C 32.722656 30.851562 31.992188 31.203125 31.207031 31.441406 C 30.421875 31.679688 29.617188 31.796875 28.796875 31.796875 C 28.515625 31.796875 28.230469 31.785156 27.953125 31.757812 C 27.71875 31.734375 27.488281 31.703125 27.257812 31.660156 C 27.03125 31.617188 26.808594 31.566406 26.585938 31.507812 C 26.367188 31.449219 26.152344 31.382812 25.941406 31.304688 C 25.832031 31.265625 25.722656 31.226562 25.617188 31.179688 C 25.515625 31.140625 25.417969 31.097656 25.320312 31.054688 C 25.121094 30.960938 24.925781 30.863281 24.734375 30.757812 C 24.542969 30.648438 24.355469 30.535156 24.171875 30.414062 C 23.988281 30.292969 23.8125 30.164062 23.640625 30.03125 C 22.207031 28.910156 21.253906 27.46875 20.773438 25.710938 Z M 20.121094 25.710938 C 20.523438 27.304688 21.308594 28.679688 22.476562 29.839844 C 22.65625 30.019531 22.847656 30.191406 23.042969 30.359375 C 23.226562 30.511719 23.417969 30.65625 23.613281 30.792969 C 23.804688 30.929688 24 31.058594 24.203125 31.175781 C 24.402344 31.296875 24.605469 31.40625 24.816406 31.511719 C 25 31.601562 25.1875 31.6875 25.378906 31.761719 C 25.40625 31.773438 25.433594 31.785156 25.460938 31.796875 C 25.679688 31.882812 25.902344 31.960938 26.128906 32.03125 C 26.355469 32.101562 26.585938 32.164062 26.820312 32.214844 C 27.054688 32.265625 27.292969 32.308594 27.53125 32.339844 C 27.953125 32.398438 28.375 32.429688 28.796875 32.429688 C 29.164062 32.425781 29.527344 32.402344 29.890625 32.355469 C 30.253906 32.3125 30.609375 32.242188 30.964844 32.152344 C 31.320312 32.0625 31.667969 31.953125 32.007812 31.820312 C 32.347656 31.6875 32.679688 31.53125 33 31.359375 C 33.320312 31.1875 33.632812 30.992188 33.929688 30.78125 C 34.226562 30.570312 34.511719 30.34375 34.78125 30.097656 C 35.050781 29.847656 35.304688 29.585938 35.542969 29.308594 C 35.78125 29.03125 36 28.742188 36.203125 28.4375 C 36.40625 28.132812 36.585938 27.816406 36.75 27.488281 C 36.914062 27.164062 37.054688 26.828125 37.179688 26.484375 C 37.300781 26.136719 37.402344 25.789062 37.480469 25.429688 C 37.558594 25.074219 37.617188 24.714844 37.648438 24.351562 C 37.683594 23.988281 37.695312 23.621094 37.6875 23.257812 C 37.675781 22.890625 37.644531 22.527344 37.589844 22.167969 C 37.535156 21.804688 37.457031 21.449219 37.359375 21.097656 C 37.261719 20.746094 37.140625 20.402344 37 20.0625 C 36.859375 19.726562 36.699219 19.398438 36.515625 19.082031 C 36.335938 18.765625 36.136719 18.460938 35.917969 18.167969 C 35.699219 17.875 35.464844 17.59375 35.210938 17.332031 C 34.957031 17.066406 34.691406 16.820312 34.40625 16.589844 C 34.125 16.359375 33.828125 16.144531 33.519531 15.949219 C 33.210938 15.757812 32.890625 15.582031 32.558594 15.425781 C 32.226562 15.269531 31.890625 15.136719 31.542969 15.023438 C 31.195312 14.910156 30.839844 14.816406 30.484375 14.746094 C 30.125 14.675781 29.761719 14.628906 29.398438 14.601562 C 29.035156 14.578125 28.667969 14.574219 28.304688 14.589844 C 27.9375 14.609375 27.578125 14.652344 27.21875 14.714844 C 26.855469 14.777344 26.503906 14.863281 26.152344 14.972656 C 25.804688 15.078125 25.460938 15.207031 25.128906 15.355469 C 24.792969 15.503906 24.472656 15.671875 24.160156 15.859375 C 23.84375 16.050781 23.546875 16.257812 23.257812 16.484375 C 22.96875 16.707031 22.699219 16.949219 22.441406 17.210938 C 22.40625 17.246094 22.371094 17.28125 22.335938 17.316406 C 22.289062 17.125 22.238281 16.9375 22.175781 16.753906 C 22.164062 16.710938 22.148438 16.667969 22.132812 16.625 C 23.023438 15.769531 24.039062 15.109375 25.179688 14.648438 C 26.324219 14.1875 27.511719 13.957031 28.746094 13.957031 C 30.015625 13.949219 31.234375 14.1875 32.40625 14.667969 C 33.578125 15.148438 34.613281 15.835938 35.515625 16.726562 C 36.414062 17.621094 37.105469 18.652344 37.59375 19.824219 C 38.082031 20.996094 38.324219 22.214844 38.324219 23.480469 C 38.328125 24.75 38.089844 25.96875 37.609375 27.140625 C 37.128906 28.3125 36.445312 29.347656 35.550781 30.246094 C 34.65625 31.148438 33.625 31.839844 32.457031 32.328125 C 31.285156 32.8125 30.066406 33.058594 28.796875 33.058594 C 28.207031 33.058594 27.621094 33.003906 27.039062 32.898438 C 26.792969 32.855469 26.542969 32.800781 26.300781 32.734375 C 26.054688 32.671875 25.816406 32.597656 25.578125 32.511719 C 25.429688 32.460938 25.285156 32.40625 25.140625 32.34375 C 25.054688 32.308594 24.96875 32.273438 24.882812 32.234375 C 24.652344 32.132812 24.429688 32.023438 24.207031 31.902344 C 23.984375 31.78125 23.765625 31.652344 23.554688 31.515625 C 23.332031 31.371094 23.117188 31.21875 22.910156 31.058594 C 22.6875 30.882812 22.472656 30.703125 22.265625 30.507812 C 22.183594 30.4375 22.109375 30.363281 22.03125 30.285156 C 20.742188 29.003906 19.890625 27.480469 19.476562 25.710938 Z M 38.777344 27.617188 C 38.371094 28.609375 37.832031 29.519531 37.15625 30.347656 C 36.476562 31.175781 35.695312 31.890625 34.808594 32.488281 C 33.917969 33.082031 32.960938 33.535156 31.9375 33.847656 C 30.914062 34.160156 29.867188 34.316406 28.796875 34.316406 C 27.773438 34.316406 26.769531 34.179688 25.78125 33.898438 C 25.507812 33.820312 25.238281 33.730469 24.972656 33.632812 C 24.867188 33.59375 24.765625 33.554688 24.660156 33.511719 C 24.496094 33.441406 24.332031 33.371094 24.171875 33.296875 C 23.902344 33.171875 23.640625 33.03125 23.382812 32.886719 C 23.109375 32.730469 22.847656 32.5625 22.589844 32.382812 C 22.3125 32.191406 22.050781 31.988281 21.792969 31.773438 C 21.570312 31.582031 21.351562 31.386719 21.144531 31.179688 C 21.132812 31.167969 21.121094 31.152344 21.109375 31.140625 C 20.90625 30.941406 20.714844 30.730469 20.527344 30.515625 C 19.335938 29.113281 18.554688 27.511719 18.1875 25.710938 L 18.828125 25.710938 C 19.230469 27.546875 20.078125 29.148438 21.375 30.515625 C 21.445312 30.585938 21.515625 30.660156 21.585938 30.730469 C 21.730469 30.871094 21.875 31.007812 22.027344 31.140625 C 22.257812 31.347656 22.503906 31.542969 22.753906 31.726562 C 22.988281 31.898438 23.226562 32.058594 23.476562 32.210938 C 23.710938 32.351562 23.949219 32.484375 24.195312 32.609375 C 24.425781 32.722656 24.660156 32.832031 24.902344 32.929688 C 24.910156 32.933594 24.921875 32.9375 24.933594 32.941406 C 25.179688 33.042969 25.433594 33.132812 25.691406 33.214844 C 25.941406 33.292969 26.199219 33.363281 26.457031 33.421875 C 27.226562 33.597656 28.007812 33.6875 28.796875 33.6875 C 29.804688 33.6875 30.792969 33.539062 31.753906 33.246094 C 32.71875 32.953125 33.621094 32.523438 34.457031 31.964844 C 35.292969 31.402344 36.03125 30.730469 36.667969 29.949219 C 37.304688 29.167969 37.8125 28.3125 38.195312 27.378906 C 38.703125 26.144531 38.953125 24.800781 38.953125 23.480469 C 38.953125 22.472656 38.804688 21.488281 38.511719 20.523438 C 38.21875 19.558594 37.789062 18.660156 37.230469 17.824219 C 36.667969 16.984375 35.996094 16.25 35.214844 15.613281 C 34.433594 14.976562 33.578125 14.46875 32.644531 14.085938 C 31.410156 13.578125 30.066406 13.324219 28.746094 13.328125 C 27.476562 13.328125 26.246094 13.558594 25.0625 14.019531 C 23.875 14.480469 22.816406 15.140625 21.878906 16 C 21.785156 15.804688 21.683594 15.617188 21.574219 15.429688 C 22.558594 14.550781 23.671875 13.875 24.910156 13.402344 C 26.144531 12.933594 27.425781 12.699219 28.746094 12.699219 C 30.140625 12.695312 31.574219 12.964844 32.882812 13.503906 C 33.875 13.910156 34.785156 14.449219 35.613281 15.125 C 36.441406 15.800781 37.15625 16.582031 37.753906 17.472656 C 38.347656 18.359375 38.804688 19.316406 39.113281 20.339844 C 39.425781 21.363281 39.582031 22.410156 39.582031 23.480469 C 39.582031 24.875 39.316406 26.308594 38.777344 27.617188 Z M 38.777344 27.617188 " fill-opacity="1" fill-rule="nonzero"/></g></svg>